# xmcd CD database file generated by Grip 3.3.1
#
# Track frame offsets:
#       150
#       14365
#       29380
#       43120
#       59790
#       74677
#       91567
#       100570
#       122007
#       135237
#
# Disc length: 2049 seconds
#
# Revision: 3
# Processed by: cddbd v1.5.1PL2 Copyright (c) Steve Scherf et al.
# Submitted via: Grip 3.3.1
#
DISCID=8007ff0a
DTITLE=The Unpronounceable - Viva Los Beefalos!
DYEAR=2005
DGENRE=Rockabilly
TTITLE0=Kill Myself
TTITLE1=Sweet Embraceable You
TTITLE2=Wrong
TTITLE3=Body In The Lake
TTITLE4=Homesick
TTITLE5=Red Sonja (lasagna)
TTITLE6=What I Desire
TTITLE7=A Little Me And You
TTITLE8=If I Do
TTITLE9=Will The Circle Be Unbroken?
EXTD=
EXTT0=
EXTT1=
EXTT2=
EXTT3=
EXTT4=
EXTT5=
EXTT6=
EXTT7=
EXTT8=
EXTT9=
PLAYORDER=
